<?xml version="1.0" encoding="UTF-8"?>
<svg xmlns="http://www.w3.org/2000/svg" xmlns:xlink="http://www.w3.org/1999/xlink" width="170.81pt" height="128.804pt" viewBox="0 0 170.81 128.804" version="1.2">
<defs>
<clipPath id="clip1">
  <path d="M 0.0351562 108 L 6 108 L 6 128.609375 L 0.0351562 128.609375 Z M 0.0351562 108 "/>
</clipPath>
<clipPath id="clip2">
  <path d="M 11 108 L 19 108 L 19 128.609375 L 11 128.609375 Z M 11 108 "/>
</clipPath>
<clipPath id="clip3">
  <path d="M 22 108 L 31 108 L 31 128.609375 L 22 128.609375 Z M 22 108 "/>
</clipPath>
<clipPath id="clip4">
  <path d="M 34 108 L 42 108 L 42 128.609375 L 34 128.609375 Z M 34 108 "/>
</clipPath>
<clipPath id="clip5">
  <path d="M 47 108 L 55 108 L 55 128.609375 L 47 128.609375 Z M 47 108 "/>
</clipPath>
<clipPath id="clip6">
  <path d="M 65 108 L 74 108 L 74 128.609375 L 65 128.609375 Z M 65 108 "/>
</clipPath>
<clipPath id="clip7">
  <path d="M 79 108 L 87 108 L 87 128.609375 L 79 128.609375 Z M 79 108 "/>
</clipPath>
<clipPath id="clip8">
  <path d="M 91 108 L 101 108 L 101 128.609375 L 91 128.609375 Z M 91 108 "/>
</clipPath>
<clipPath id="clip9">
  <path d="M 105 108 L 114 108 L 114 128.609375 L 105 128.609375 Z M 105 108 "/>
</clipPath>
<clipPath id="clip10">
  <path d="M 117 108 L 126 108 L 126 128.609375 L 117 128.609375 Z M 117 108 "/>
</clipPath>
<clipPath id="clip11">
  <path d="M 128 108 L 138 108 L 138 128.609375 L 128 128.609375 Z M 128 108 "/>
</clipPath>
<clipPath id="clip12">
  <path d="M 142 108 L 150 108 L 150 128.609375 L 142 128.609375 Z M 142 108 "/>
</clipPath>
<clipPath id="clip13">
  <path d="M 155 108 L 158 108 L 158 128.609375 L 155 128.609375 Z M 155 108 "/>
</clipPath>
<clipPath id="clip14">
  <path d="M 163 108 L 170.585938 108 L 170.585938 128.609375 L 163 128.609375 Z M 163 108 "/>
</clipPath>
</defs>
<g id="surface1">
<path style=" stroke:none;fill-rule:nonzero;fill:rgb(88.35907%,82.772827%,80.67627%);fill-opacity:1;" d="M 41.886719 41.773438 L 77.519531 41.773438 L 77.519531 39.738281 L 41.886719 39.738281 Z M 41.886719 41.773438 "/>
<path style=" stroke:none;fill-rule:nonzero;fill:rgb(88.35907%,82.772827%,80.67627%);fill-opacity:1;" d="M 73.601562 61.179688 L 154.945312 61.179688 L 154.945312 59.144531 L 73.601562 59.144531 Z M 73.601562 61.179688 "/>
<path style=" stroke:none;fill-rule:nonzero;fill:rgb(88.35907%,82.772827%,80.67627%);fill-opacity:1;" d="M 136.53125 39.484375 L 73.988281 19.40625 L 73.367188 21.34375 L 135.910156 41.421875 Z M 136.53125 39.484375 "/>
<path style=" stroke:none;fill-rule:nonzero;fill:rgb(88.35907%,82.772827%,80.67627%);fill-opacity:1;" d="M 116.214844 95.332031 L 119.167969 95.332031 L 119.167969 85.957031 L 116.214844 85.957031 Z M 116.214844 95.332031 "/>
<path style=" stroke:none;fill-rule:nonzero;fill:rgb(88.35907%,82.772827%,80.67627%);fill-opacity:1;" d="M 81.328125 62.03125 L 78.371094 62.03125 L 78.371094 95.332031 L 81.328125 95.332031 Z M 81.328125 62.03125 "/>
<path style=" stroke:none;fill-rule:nonzero;fill:rgb(88.35907%,82.772827%,80.67627%);fill-opacity:1;" d="M 119.167969 62.03125 L 116.214844 62.03125 L 116.214844 85.105469 L 119.167969 85.105469 Z M 119.167969 62.03125 "/>
<path style=" stroke:none;fill-rule:nonzero;fill:rgb(38.555908%,38.964844%,39.804077%);fill-opacity:1;" d="M 152.082031 85.105469 L 152.511719 85.105469 L 152.511719 85.957031 L 152.082031 85.957031 L 152.082031 95.332031 L 120.019531 95.332031 L 120.019531 95.757812 L 119.167969 95.757812 L 119.167969 95.332031 L 116.214844 95.332031 L 116.214844 95.757812 L 115.363281 95.757812 L 115.363281 95.332031 L 82.179688 95.332031 L 82.179688 95.757812 L 81.328125 95.757812 L 81.328125 95.332031 L 78.371094 95.332031 L 78.371094 95.757812 L 77.519531 95.757812 L 77.519531 95.332031 L 68.480469 95.332031 L 68.480469 96.183594 L 152.933594 96.183594 L 152.933594 62.027344 L 152.082031 62.027344 Z M 152.082031 85.105469 "/>
<path style=" stroke:none;fill-rule:nonzero;fill:rgb(38.555908%,38.964844%,39.804077%);fill-opacity:1;" d="M 45.339844 95.332031 L 45.339844 95.757812 L 44.488281 95.757812 L 44.488281 95.332031 L 36.902344 95.332031 L 36.902344 96.183594 L 53.917969 96.183594 L 53.917969 95.332031 Z M 45.339844 95.332031 "/>
<path style=" stroke:none;fill-rule:nonzero;fill:rgb(38.555908%,38.964844%,39.804077%);fill-opacity:1;" d="M 77.519531 38.886719 L 78.371094 38.886719 L 78.371094 23.84375 L 77.519531 23.570312 Z M 77.519531 38.886719 "/>
<path style=" stroke:none;fill-rule:nonzero;fill:rgb(38.555908%,38.964844%,39.804077%);fill-opacity:1;" d="M 77.519531 58.292969 L 78.371094 58.292969 L 78.371094 42.628906 L 77.519531 42.628906 Z M 77.519531 58.292969 "/>
<path style=" stroke:none;fill-rule:nonzero;fill:rgb(38.555908%,38.964844%,39.804077%);fill-opacity:1;" d="M 44.484375 95.332031 L 45.339844 95.332031 L 45.339844 42.628906 L 44.484375 42.628906 Z M 44.484375 95.332031 "/>
<path style=" stroke:none;fill-rule:nonzero;fill:rgb(38.555908%,38.964844%,39.804077%);fill-opacity:1;" d="M 44.484375 95.757812 L 45.339844 95.757812 L 45.339844 95.332031 L 44.484375 95.332031 Z M 44.484375 95.757812 "/>
<path style=" stroke:none;fill-rule:nonzero;fill:rgb(38.555908%,38.964844%,39.804077%);fill-opacity:1;" d="M 45.339844 42.199219 L 45.339844 42.628906 L 77.519531 42.628906 L 77.519531 41.773438 L 41.890625 41.773438 L 41.890625 39.738281 L 77.519531 39.738281 L 77.519531 38.886719 L 41.039062 38.886719 L 41.039062 42.628906 L 44.488281 42.628906 L 44.488281 42.199219 Z M 45.339844 42.199219 "/>
<path style=" stroke:none;fill-rule:nonzero;fill:rgb(38.555908%,38.964844%,39.804077%);fill-opacity:1;" d="M 77.519531 38.886719 L 77.519531 42.628906 L 78.371094 42.628906 L 78.371094 38.886719 Z M 77.519531 38.886719 "/>
<path style=" stroke:none;fill-rule:nonzero;fill:rgb(38.555908%,38.964844%,39.804077%);fill-opacity:1;" d="M 44.484375 42.628906 L 45.339844 42.628906 L 45.339844 42.199219 L 44.484375 42.199219 Z M 44.484375 42.628906 "/>
<path style=" stroke:none;fill-rule:nonzero;fill:rgb(38.555908%,38.964844%,39.804077%);fill-opacity:1;" d="M 154.945312 61.179688 L 73.601562 61.179688 L 73.601562 59.144531 L 154.945312 59.144531 Z M 132.683594 58.558594 L 132.683594 58.292969 L 78.371094 58.292969 L 78.371094 58.558594 L 77.519531 58.558594 L 77.519531 58.292969 L 72.75 58.292969 L 72.75 62.03125 L 77.519531 62.03125 L 77.519531 61.804688 L 78.371094 61.804688 L 78.371094 62.03125 L 81.328125 62.03125 L 81.328125 61.804688 L 82.179688 61.804688 L 82.179688 62.03125 L 115.363281 62.03125 L 115.363281 61.804688 L 116.214844 61.804688 L 116.214844 62.03125 L 119.167969 62.03125 L 119.167969 61.804688 L 120.019531 61.804688 L 120.019531 62.03125 L 152.082031 62.03125 L 152.082031 61.765625 L 152.933594 61.765625 L 152.933594 62.03125 L 155.796875 62.03125 L 155.796875 58.292969 L 133.535156 58.292969 L 133.535156 58.558594 Z M 132.683594 58.558594 "/>
<path style=" stroke:none;fill-rule:nonzero;fill:rgb(38.555908%,38.964844%,39.804077%);fill-opacity:1;" d="M 152.082031 62.03125 L 152.933594 62.03125 L 152.933594 61.765625 L 152.082031 61.765625 Z M 152.082031 62.03125 "/>
<path style=" stroke:none;fill-rule:nonzero;fill:rgb(38.555908%,38.964844%,39.804077%);fill-opacity:1;" d="M 77.519531 58.558594 L 78.371094 58.558594 L 78.371094 58.292969 L 77.519531 58.292969 Z M 77.519531 58.558594 "/>
<path style=" stroke:none;fill-rule:nonzero;fill:rgb(38.555908%,38.964844%,39.804077%);fill-opacity:1;" d="M 73.367188 21.34375 L 73.988281 19.40625 L 136.53125 39.484375 L 135.910156 41.421875 Z M 78.371094 22.957031 L 78.371094 23.84375 L 132.683594 41.28125 L 132.683594 40.972656 L 133.535156 40.972656 L 133.535156 41.554688 L 136.054688 42.363281 L 136.460938 42.492188 L 137.605469 38.933594 L 73.4375 18.335938 L 72.296875 21.894531 L 77.519531 23.570312 L 77.519531 22.957031 Z M 78.371094 22.957031 "/>
<path style=" stroke:none;fill-rule:nonzero;fill:rgb(38.555908%,38.964844%,39.804077%);fill-opacity:1;" d="M 77.519531 22.957031 L 77.519531 23.570312 L 78.371094 23.84375 L 78.371094 22.957031 Z M 77.519531 22.957031 "/>
<path style=" stroke:none;fill-rule:nonzero;fill:rgb(38.555908%,38.964844%,39.804077%);fill-opacity:1;" d="M 132.683594 58.292969 L 133.535156 58.292969 L 133.535156 41.554688 L 132.683594 41.28125 Z M 132.683594 58.292969 "/>
<path style=" stroke:none;fill-rule:nonzero;fill:rgb(38.555908%,38.964844%,39.804077%);fill-opacity:1;" d="M 132.683594 58.558594 L 133.535156 58.558594 L 133.535156 58.292969 L 132.683594 58.292969 Z M 132.683594 58.558594 "/>
<path style=" stroke:none;fill-rule:nonzero;fill:rgb(38.555908%,38.964844%,39.804077%);fill-opacity:1;" d="M 132.683594 40.972656 L 132.683594 41.28125 L 133.535156 41.554688 L 133.535156 40.972656 Z M 132.683594 40.972656 "/>
<path style=" stroke:none;fill-rule:nonzero;fill:rgb(38.555908%,38.964844%,39.804077%);fill-opacity:1;" d="M 77.519531 95.332031 L 78.371094 95.332031 L 78.371094 62.03125 L 77.519531 62.03125 Z M 77.519531 95.332031 "/>
<path style=" stroke:none;fill-rule:nonzero;fill:rgb(38.555908%,38.964844%,39.804077%);fill-opacity:1;" d="M 77.519531 95.757812 L 78.371094 95.757812 L 78.371094 95.332031 L 77.519531 95.332031 Z M 77.519531 95.757812 "/>
<path style=" stroke:none;fill-rule:nonzero;fill:rgb(38.555908%,38.964844%,39.804077%);fill-opacity:1;" d="M 77.519531 62.03125 L 78.371094 62.03125 L 78.371094 61.804688 L 77.519531 61.804688 Z M 77.519531 62.03125 "/>
<path style=" stroke:none;fill-rule:nonzero;fill:rgb(38.555908%,38.964844%,39.804077%);fill-opacity:1;" d="M 81.324219 62.03125 L 81.324219 95.332031 L 82.179688 95.332031 L 82.179688 85.957031 L 81.753906 85.957031 L 81.753906 85.105469 L 82.179688 85.105469 L 82.179688 62.03125 Z M 81.324219 62.03125 "/>
<path style=" stroke:none;fill-rule:nonzero;fill:rgb(38.555908%,38.964844%,39.804077%);fill-opacity:1;" d="M 81.328125 95.757812 L 82.179688 95.757812 L 82.179688 95.332031 L 81.328125 95.332031 Z M 81.328125 95.757812 "/>
<path style=" stroke:none;fill-rule:nonzero;fill:rgb(38.555908%,38.964844%,39.804077%);fill-opacity:1;" d="M 81.328125 62.03125 L 82.179688 62.03125 L 82.179688 61.804688 L 81.328125 61.804688 Z M 81.328125 62.03125 "/>
<path style=" stroke:none;fill-rule:nonzero;fill:rgb(38.555908%,38.964844%,39.804077%);fill-opacity:1;" d="M 119.171875 85.105469 L 120.023438 85.105469 L 120.023438 62.03125 L 119.171875 62.03125 Z M 119.171875 85.105469 "/>
<path style=" stroke:none;fill-rule:nonzero;fill:rgb(38.555908%,38.964844%,39.804077%);fill-opacity:1;" d="M 119.171875 95.332031 L 120.023438 95.332031 L 120.023438 85.957031 L 119.171875 85.957031 Z M 119.171875 95.332031 "/>
<path style=" stroke:none;fill-rule:nonzero;fill:rgb(38.555908%,38.964844%,39.804077%);fill-opacity:1;" d="M 119.171875 95.757812 L 120.023438 95.757812 L 120.023438 95.332031 L 119.171875 95.332031 Z M 119.171875 95.757812 "/>
<path style=" stroke:none;fill-rule:nonzero;fill:rgb(38.555908%,38.964844%,39.804077%);fill-opacity:1;" d="M 119.171875 62.03125 L 120.023438 62.03125 L 120.023438 61.804688 L 119.171875 61.804688 Z M 119.171875 62.03125 "/>
<path style=" stroke:none;fill-rule:nonzero;fill:rgb(38.555908%,38.964844%,39.804077%);fill-opacity:1;" d="M 115.363281 95.332031 L 116.214844 95.332031 L 116.214844 85.957031 L 115.363281 85.957031 Z M 115.363281 95.332031 "/>
<path style=" stroke:none;fill-rule:nonzero;fill:rgb(38.555908%,38.964844%,39.804077%);fill-opacity:1;" d="M 115.363281 85.105469 L 116.214844 85.105469 L 116.214844 62.03125 L 115.363281 62.03125 Z M 115.363281 85.105469 "/>
<path style=" stroke:none;fill-rule:nonzero;fill:rgb(38.555908%,38.964844%,39.804077%);fill-opacity:1;" d="M 115.363281 95.757812 L 116.214844 95.757812 L 116.214844 95.332031 L 115.363281 95.332031 Z M 115.363281 95.757812 "/>
<path style=" stroke:none;fill-rule:nonzero;fill:rgb(38.555908%,38.964844%,39.804077%);fill-opacity:1;" d="M 115.363281 62.03125 L 116.214844 62.03125 L 116.214844 61.804688 L 115.363281 61.804688 Z M 115.363281 62.03125 "/>
<path style=" stroke:none;fill-rule:nonzero;fill:rgb(38.555908%,38.964844%,39.804077%);fill-opacity:1;" d="M 54.773438 73.328125 L 67.628906 73.328125 L 67.628906 95.332031 L 68.484375 95.332031 L 68.484375 72.476562 L 53.917969 72.476562 L 53.917969 95.332031 L 54.773438 95.332031 Z M 54.773438 73.328125 "/>
<path style=" stroke:none;fill-rule:nonzero;fill:rgb(38.555908%,38.964844%,39.804077%);fill-opacity:1;" d="M 67.628906 95.332031 L 53.917969 95.332031 L 53.917969 96.183594 L 68.480469 96.183594 L 68.480469 95.332031 Z M 67.628906 95.332031 "/>
<path style=" stroke:none;fill-rule:nonzero;fill:rgb(38.555908%,38.964844%,39.804077%);fill-opacity:1;" d="M 67.628906 65.554688 L 54.773438 65.554688 L 54.773438 51.714844 L 67.628906 51.714844 Z M 68.484375 50.863281 L 53.917969 50.863281 L 53.917969 66.40625 L 68.484375 66.40625 Z M 68.484375 50.863281 "/>
<path style=" stroke:none;fill-rule:nonzero;fill:rgb(38.555908%,38.964844%,39.804077%);fill-opacity:1;" d="M 126.117188 53.6875 L 106.867188 53.6875 L 106.867188 54.113281 L 106.015625 54.113281 L 106.015625 53.6875 L 84.753906 53.6875 L 84.753906 32.410156 L 106.015625 39.148438 L 106.015625 38.839844 L 106.867188 38.839844 L 106.867188 39.421875 L 126.117188 45.523438 Z M 126.96875 44.902344 L 83.902344 31.246094 L 83.902344 54.539062 L 126.96875 54.539062 Z M 126.96875 44.902344 "/>
<path style=" stroke:none;fill-rule:nonzero;fill:rgb(38.555908%,38.964844%,39.804077%);fill-opacity:1;" d="M 106.015625 53.6875 L 106.867188 53.6875 L 106.867188 39.421875 L 106.015625 39.152344 Z M 106.015625 53.6875 "/>
<path style=" stroke:none;fill-rule:nonzero;fill:rgb(38.555908%,38.964844%,39.804077%);fill-opacity:1;" d="M 106.015625 38.839844 L 106.015625 39.148438 L 106.867188 39.421875 L 106.867188 38.839844 Z M 106.015625 38.839844 "/>
<path style=" stroke:none;fill-rule:nonzero;fill:rgb(38.555908%,38.964844%,39.804077%);fill-opacity:1;" d="M 106.015625 54.113281 L 106.867188 54.113281 L 106.867188 53.6875 L 106.015625 53.6875 Z M 106.015625 54.113281 "/>
<path style=" stroke:none;fill-rule:nonzero;fill:rgb(38.555908%,38.964844%,39.804077%);fill-opacity:1;" d="M 116.214844 85.957031 L 119.171875 85.957031 L 119.171875 85.105469 L 116.214844 85.105469 Z M 116.214844 85.957031 "/>
<path style=" stroke:none;fill-rule:nonzero;fill:rgb(38.555908%,38.964844%,39.804077%);fill-opacity:1;" d="M 82.179688 85.957031 L 115.363281 85.957031 L 115.363281 85.105469 L 82.179688 85.105469 Z M 82.179688 85.957031 "/>
<path style=" stroke:none;fill-rule:nonzero;fill:rgb(38.555908%,38.964844%,39.804077%);fill-opacity:1;" d="M 120.023438 85.957031 L 152.082031 85.957031 L 152.082031 85.105469 L 120.023438 85.105469 Z M 120.023438 85.957031 "/>
<path style=" stroke:none;fill-rule:nonzero;fill:rgb(38.555908%,38.964844%,39.804077%);fill-opacity:1;" d="M 152.082031 85.957031 L 152.511719 85.957031 L 152.511719 85.105469 L 152.082031 85.105469 Z M 152.082031 85.957031 "/>
<path style=" stroke:none;fill-rule:nonzero;fill:rgb(38.555908%,38.964844%,39.804077%);fill-opacity:1;" d="M 81.753906 85.957031 L 82.179688 85.957031 L 82.179688 85.105469 L 81.753906 85.105469 Z M 81.753906 85.957031 "/>
<path style=" stroke:none;fill-rule:nonzero;fill:rgb(38.555908%,38.964844%,39.804077%);fill-opacity:1;" d="M 119.171875 85.957031 L 120.023438 85.957031 L 120.023438 85.105469 L 119.171875 85.105469 Z M 119.171875 85.957031 "/>
<path style=" stroke:none;fill-rule:nonzero;fill:rgb(38.555908%,38.964844%,39.804077%);fill-opacity:1;" d="M 115.363281 85.957031 L 116.214844 85.957031 L 116.214844 85.105469 L 115.363281 85.105469 Z M 115.363281 85.957031 "/>
<path style=" stroke:none;fill-rule:nonzero;fill:rgb(88.35907%,82.772827%,80.67627%);fill-opacity:1;" d="M 36.742188 13.226562 C 36.742188 12.867188 36.558594 12.542969 36.25 12.355469 C 36.09375 12.261719 35.910156 12.210938 35.722656 12.210938 C 35.371094 12.210938 35.0625 12.390625 34.878906 12.660156 C 34.878906 12.664062 34.878906 12.664062 34.875 12.667969 C 34.769531 12.828125 34.707031 13.019531 34.707031 13.226562 C 34.707031 13.464844 34.785156 13.6875 34.9375 13.871094 C 35.113281 14.089844 35.375 14.222656 35.652344 14.242188 C 35.65625 14.242188 35.65625 14.242188 35.660156 14.242188 C 35.660156 14.242188 35.660156 14.242188 35.664062 14.242188 C 35.667969 14.242188 35.667969 14.242188 35.675781 14.242188 C 35.714844 14.246094 35.757812 14.246094 35.796875 14.242188 C 35.816406 14.238281 35.832031 14.238281 35.847656 14.234375 C 36.058594 13.976562 36.332031 13.777344 36.644531 13.664062 C 36.707031 13.527344 36.742188 13.378906 36.742188 13.226562 "/>
<path style=" stroke:none;fill-rule:nonzero;fill:rgb(88.35907%,82.772827%,80.67627%);fill-opacity:1;" d="M 37.570312 14.445312 C 37.484375 14.421875 37.398438 14.414062 37.308594 14.414062 C 37.222656 14.414062 37.132812 14.421875 37.054688 14.445312 C 36.808594 14.507812 36.597656 14.660156 36.457031 14.871094 C 36.351562 15.035156 36.292969 15.230469 36.292969 15.429688 C 36.292969 15.988281 36.75 16.445312 37.308594 16.445312 C 37.871094 16.445312 38.328125 15.988281 38.328125 15.429688 C 38.328125 15.230469 38.269531 15.035156 38.160156 14.871094 C 38.019531 14.660156 37.8125 14.507812 37.570312 14.445312 "/>
<path style=" stroke:none;fill-rule:nonzero;fill:rgb(88.35907%,82.772827%,80.67627%);fill-opacity:1;" d="M 39.09375 12.230469 C 38.84375 12.179688 38.582031 12.226562 38.367188 12.355469 C 38.0625 12.542969 37.878906 12.867188 37.878906 13.226562 C 37.878906 13.378906 37.910156 13.527344 37.976562 13.660156 C 38.285156 13.777344 38.558594 13.972656 38.769531 14.234375 C 38.785156 14.234375 38.796875 14.238281 38.808594 14.238281 C 38.871094 14.246094 38.90625 14.246094 38.945312 14.242188 C 38.949219 14.242188 38.953125 14.242188 38.957031 14.242188 L 38.960938 14.242188 C 38.960938 14.242188 38.964844 14.242188 38.96875 14.242188 C 39.246094 14.222656 39.503906 14.089844 39.683594 13.871094 C 39.832031 13.6875 39.914062 13.464844 39.914062 13.226562 C 39.914062 13.03125 39.859375 12.839844 39.75 12.679688 C 39.601562 12.445312 39.363281 12.28125 39.09375 12.230469 "/>
<path style=" stroke:none;fill-rule:nonzero;fill:rgb(50.123596%,57.476807%,32.778931%);fill-opacity:1;" d="M 45.886719 2.753906 C 45.785156 2.601562 45.789062 2.402344 45.898438 2.253906 C 46.007812 2.105469 46.195312 2.042969 46.371094 2.09375 L 48.304688 2.660156 C 49.214844 2.109375 50.152344 1.574219 51.109375 1.0625 C 50.339844 0.953125 49.464844 0.871094 48.539062 0.871094 C 46.386719 0.871094 43.964844 1.304688 41.972656 2.800781 C 40.800781 3.679688 39.890625 4.863281 39.230469 6.328125 C 39.960938 6.492188 40.648438 6.757812 41.28125 7.105469 C 42.710938 5.761719 44.386719 4.558594 46.507812 3.683594 Z M 45.886719 2.753906 "/>
<path style=" stroke:none;fill-rule:nonzero;fill:rgb(50.123596%,57.476807%,32.778931%);fill-opacity:1;" d="M 38.097656 10.710938 C 39.046875 9.46875 40.078125 8.234375 41.28125 7.105469 C 40.648438 6.757812 39.960938 6.492188 39.230469 6.328125 C 38.664062 7.582031 38.28125 9.039062 38.097656 10.710938 "/>
<path style=" stroke:none;fill-rule:nonzero;fill:rgb(50.123596%,57.476807%,32.778931%);fill-opacity:1;" d="M 50.179688 17.914062 C 50.269531 17.753906 50.453125 17.667969 50.632812 17.699219 C 50.8125 17.730469 50.957031 17.871094 50.988281 18.050781 L 51.328125 19.96875 C 52.140625 20.480469 52.957031 21.023438 53.757812 21.59375 C 51.605469 16.199219 48.355469 14.273438 45.125 13.960938 C 45.066406 14.8125 44.863281 15.625 44.527344 16.371094 C 46.246094 17.117188 47.941406 17.960938 49.601562 18.921875 Z M 50.179688 17.914062 "/>
<path style=" stroke:none;fill-rule:nonzero;fill:rgb(50.123596%,57.476807%,32.778931%);fill-opacity:1;" d="M 40.261719 14.527344 C 40.203125 14.589844 40.144531 14.644531 40.078125 14.699219 C 41.574219 15.171875 43.058594 15.734375 44.527344 16.371094 C 44.863281 15.625 45.066406 14.8125 45.125 13.960938 C 43.445312 13.800781 41.773438 14.066406 40.261719 14.527344 "/>
<path style=" stroke:none;fill-rule:nonzero;fill:rgb(50.123596%,57.476807%,32.778931%);fill-opacity:1;" d="M 52.078125 10.621094 L 52.054688 9.179688 C 52.054688 8.996094 52.167969 8.828125 52.339844 8.765625 C 52.507812 8.699219 52.703125 8.75 52.820312 8.886719 L 54.332031 10.640625 C 55.546875 10.671875 56.789062 10.746094 58.035156 10.851562 C 51.925781 6.046875 47.015625 6.515625 43.34375 8.75 C 43.964844 9.453125 44.449219 10.273438 44.757812 11.167969 C 47.152344 10.835938 49.59375 10.640625 52.078125 10.621094 "/>
<path style=" stroke:none;fill-rule:nonzero;fill:rgb(50.123596%,57.476807%,32.778931%);fill-opacity:1;" d="M 39.90625 11.632812 C 40.046875 11.722656 40.175781 11.832031 40.289062 11.953125 C 41.75 11.625 43.246094 11.375 44.757812 11.167969 C 44.449219 10.273438 43.964844 9.453125 43.34375 8.75 C 42.042969 9.542969 40.894531 10.554688 39.90625 11.632812 "/>
<path style=" stroke:none;fill-rule:nonzero;fill:rgb(50.123596%,57.476807%,32.778931%);fill-opacity:1;" d="M 32.644531 2.800781 C 29.796875 0.664062 26.0625 0.691406 23.511719 1.0625 C 24.46875 1.574219 25.40625 2.109375 26.3125 2.660156 L 28.246094 2.09375 C 28.421875 2.042969 28.613281 2.105469 28.722656 2.253906 C 28.828125 2.402344 28.832031 2.601562 28.730469 2.753906 L 28.109375 3.683594 C 30.28125 4.578125 31.980469 5.8125 33.429688 7.195312 C 34.039062 6.839844 34.703125 6.566406 35.410156 6.382812 C 34.75 4.894531 33.832031 3.691406 32.644531 2.800781 "/>
<path style=" stroke:none;fill-rule:nonzero;fill:rgb(50.123596%,57.476807%,32.778931%);fill-opacity:1;" d="M 36.523438 10.710938 C 36.339844 9.0625 35.964844 7.625 35.410156 6.382812 C 34.707031 6.566406 34.042969 6.839844 33.429688 7.195312 C 34.59375 8.300781 35.597656 9.503906 36.523438 10.710938 "/>
<path style=" stroke:none;fill-rule:nonzero;fill:rgb(50.123596%,57.476807%,32.778931%);fill-opacity:1;" d="M 20.859375 21.59375 C 21.664062 21.023438 22.476562 20.480469 23.289062 19.96875 L 23.632812 18.050781 C 23.664062 17.871094 23.804688 17.730469 23.988281 17.699219 C 24.167969 17.667969 24.347656 17.753906 24.4375 17.914062 L 25.019531 18.921875 C 26.746094 17.921875 28.511719 17.050781 30.304688 16.285156 C 29.988281 15.554688 29.796875 14.765625 29.742188 13.9375 C 26.429688 14.171875 23.066406 16.0625 20.859375 21.59375 "/>
<path style=" stroke:none;fill-rule:nonzero;fill:rgb(50.123596%,57.476807%,32.778931%);fill-opacity:1;" d="M 34.539062 14.699219 C 34.476562 14.644531 34.414062 14.589844 34.359375 14.527344 C 32.921875 14.089844 31.335938 13.824219 29.742188 13.9375 C 29.796875 14.765625 29.988281 15.554688 30.304688 16.285156 C 31.703125 15.6875 33.117188 15.148438 34.539062 14.699219 "/>
<path style=" stroke:none;fill-rule:nonzero;fill:rgb(50.123596%,57.476807%,32.778931%);fill-opacity:1;" d="M 16.640625 10.851562 C 17.886719 10.746094 19.125 10.671875 20.339844 10.640625 L 21.851562 8.886719 C 21.972656 8.75 22.164062 8.699219 22.335938 8.765625 C 22.507812 8.828125 22.621094 8.996094 22.617188 9.179688 L 22.597656 10.621094 C 25.144531 10.640625 27.648438 10.847656 30.097656 11.191406 C 30.398438 10.320312 30.859375 9.519531 31.453125 8.824219 C 27.769531 6.527344 22.820312 5.996094 16.640625 10.851562 "/>
<path style=" stroke:none;fill-rule:nonzero;fill:rgb(50.123596%,57.476807%,32.778931%);fill-opacity:1;" d="M 34.339844 11.945312 C 34.460938 11.816406 34.597656 11.703125 34.746094 11.613281 C 33.796875 10.574219 32.699219 9.601562 31.457031 8.824219 C 30.859375 9.519531 30.398438 10.320312 30.097656 11.191406 C 31.53125 11.394531 32.953125 11.632812 34.339844 11.945312 "/>
<path style=" stroke:none;fill-rule:nonzero;fill:rgb(38.555908%,38.964844%,39.804077%);fill-opacity:1;" d="M 59.691406 11.085938 C 59.617188 11.023438 59.523438 10.945312 59.410156 10.851562 C 58.328125 9.929688 55.445312 7.488281 51.71875 6.578125 C 48.515625 5.800781 45.496094 6.3125 42.695312 8.101562 C 42.921875 8.304688 43.144531 8.519531 43.34375 8.75 C 47.015625 6.515625 51.925781 6.046875 58.035156 10.851562 C 56.785156 10.746094 55.546875 10.671875 54.332031 10.640625 L 52.820312 8.886719 C 52.703125 8.75 52.507812 8.699219 52.335938 8.765625 C 52.164062 8.828125 52.054688 8.996094 52.054688 9.179688 L 52.078125 10.621094 C 49.59375 10.640625 47.152344 10.835938 44.757812 11.167969 C 44.855469 11.445312 44.9375 11.726562 44.996094 12.015625 C 47.457031 11.679688 49.964844 11.492188 52.519531 11.488281 C 52.636719 11.488281 52.75 11.441406 52.828125 11.359375 C 52.910156 11.277344 52.957031 11.164062 52.953125 11.046875 L 52.945312 10.363281 L 53.796875 11.355469 C 53.878906 11.445312 53.996094 11.5 54.117188 11.503906 C 55.832031 11.546875 57.597656 11.667969 59.367188 11.855469 C 59.558594 11.875 59.742188 11.769531 59.816406 11.589844 C 59.890625 11.410156 59.839844 11.207031 59.691406 11.085938 "/>
<path style=" stroke:none;fill-rule:nonzero;fill:rgb(38.555908%,38.964844%,39.804077%);fill-opacity:1;" d="M 45.125 13.960938 C 48.355469 14.273438 51.605469 16.203125 53.757812 21.59375 C 52.953125 21.023438 52.144531 20.480469 51.328125 19.964844 L 50.988281 18.050781 C 50.957031 17.871094 50.8125 17.730469 50.632812 17.699219 C 50.453125 17.667969 50.273438 17.753906 50.179688 17.910156 L 49.601562 18.921875 C 47.941406 17.960938 46.246094 17.117188 44.527344 16.371094 C 44.40625 16.636719 44.265625 16.894531 44.113281 17.144531 C 45.953125 17.9375 47.769531 18.851562 49.539062 19.894531 C 49.640625 19.957031 49.757812 19.972656 49.871094 19.941406 C 49.984375 19.910156 50.082031 19.839844 50.140625 19.738281 L 50.339844 19.386719 L 50.503906 20.308594 C 50.527344 20.429688 50.597656 20.535156 50.703125 20.601562 C 51.945312 21.382812 53.191406 22.234375 54.398438 23.140625 C 54.476562 23.195312 54.566406 23.226562 54.660156 23.226562 C 54.753906 23.226562 54.84375 23.195312 54.921875 23.140625 C 55.074219 23.023438 55.136719 22.820312 55.070312 22.636719 C 55.042969 22.5625 55.007812 22.46875 54.96875 22.347656 C 54.578125 21.21875 53.539062 18.214844 51.25 15.929688 C 49.519531 14.207031 47.472656 13.25 45.128906 13.054688 C 45.136719 13.195312 45.152344 13.332031 45.152344 13.472656 C 45.152344 13.636719 45.136719 13.800781 45.125 13.960938 "/>
<path style=" stroke:none;fill-rule:nonzero;fill:rgb(38.555908%,38.964844%,39.804077%);fill-opacity:1;" d="M 25.019531 18.921875 L 24.4375 17.914062 C 24.347656 17.753906 24.164062 17.667969 23.984375 17.699219 C 23.804688 17.730469 23.664062 17.871094 23.632812 18.050781 L 23.289062 19.96875 C 22.476562 20.480469 21.664062 21.023438 20.863281 21.59375 C 23.066406 16.0625 26.429688 14.171875 29.742188 13.9375 C 29.730469 13.78125 29.71875 13.628906 29.71875 13.472656 C 29.71875 13.328125 29.730469 13.191406 29.738281 13.046875 C 27.292969 13.195312 25.15625 14.148438 23.371094 15.929688 C 21.078125 18.214844 20.042969 21.21875 19.652344 22.347656 C 19.609375 22.464844 19.578125 22.5625 19.550781 22.636719 C 19.484375 22.820312 19.542969 23.023438 19.699219 23.136719 C 19.773438 23.195312 19.867188 23.226562 19.960938 23.226562 C 20.050781 23.226562 20.140625 23.195312 20.21875 23.136719 C 21.429688 22.234375 22.671875 21.382812 23.917969 20.601562 C 24.019531 20.539062 24.09375 20.429688 24.113281 20.308594 L 24.28125 19.386719 L 24.480469 19.738281 C 24.539062 19.839844 24.636719 19.910156 24.746094 19.941406 C 24.859375 19.972656 24.980469 19.953125 25.082031 19.894531 C 26.914062 18.8125 28.796875 17.875 30.703125 17.0625 C 30.554688 16.8125 30.421875 16.554688 30.304688 16.285156 C 28.511719 17.050781 26.746094 17.921875 25.019531 18.921875 "/>
<path style=" stroke:none;fill-rule:nonzero;fill:rgb(38.555908%,38.964844%,39.804077%);fill-opacity:1;" d="M 36.902344 20.800781 L 36.902344 95.582031 L 37.773438 95.582031 L 37.773438 20.808594 C 37.660156 20.816406 37.546875 20.828125 37.433594 20.828125 C 37.253906 20.828125 37.078125 20.8125 36.902344 20.800781 "/>
<path style=" stroke:none;fill-rule:nonzero;fill:rgb(38.555908%,38.964844%,39.804077%);fill-opacity:1;" d="M 22.597656 10.621094 L 22.617188 9.179688 C 22.621094 8.996094 22.507812 8.828125 22.335938 8.765625 C 22.164062 8.699219 21.972656 8.75 21.851562 8.886719 L 20.339844 10.640625 C 19.125 10.671875 17.886719 10.746094 16.640625 10.851562 C 22.820312 5.996094 27.769531 6.527344 31.453125 8.824219 C 31.652344 8.597656 31.863281 8.382812 32.089844 8.175781 C 29.257812 6.332031 26.199219 5.789062 22.953125 6.578125 C 19.230469 7.488281 16.347656 9.929688 15.265625 10.847656 C 15.152344 10.945312 15.058594 11.023438 14.984375 11.085938 C 14.835938 11.207031 14.78125 11.410156 14.855469 11.589844 C 14.929688 11.769531 15.113281 11.875 15.304688 11.855469 C 17.074219 11.667969 18.84375 11.546875 20.554688 11.503906 C 20.679688 11.5 20.796875 11.445312 20.875 11.355469 L 21.730469 10.363281 L 21.71875 11.046875 C 21.714844 11.164062 21.761719 11.277344 21.84375 11.359375 C 21.925781 11.441406 22.039062 11.488281 22.152344 11.488281 C 24.773438 11.492188 27.347656 11.6875 29.867188 12.039062 C 29.925781 11.75 30.003906 11.46875 30.101562 11.191406 C 27.648438 10.847656 25.144531 10.640625 22.597656 10.621094 "/>
<path style=" stroke:none;fill-rule:nonzero;fill:rgb(38.555908%,38.964844%,39.804077%);fill-opacity:1;" d="M 28.109375 3.683594 L 28.730469 2.753906 C 28.832031 2.601562 28.828125 2.402344 28.71875 2.253906 C 28.613281 2.105469 28.421875 2.042969 28.246094 2.09375 L 26.3125 2.660156 C 25.40625 2.109375 24.46875 1.574219 23.511719 1.0625 C 26.0625 0.691406 29.796875 0.664062 32.644531 2.800781 C 33.832031 3.6875 34.75 4.894531 35.410156 6.382812 C 35.699219 6.308594 35.992188 6.25 36.289062 6.207031 C 35.566406 4.5 34.527344 3.121094 33.167969 2.101562 C 29.53125 -0.625 24.664062 -0.113281 22.082031 0.433594 C 21.902344 0.472656 21.765625 0.621094 21.742188 0.804688 C 21.71875 0.988281 21.8125 1.164062 21.976562 1.25 C 23.367188 1.953125 24.730469 2.710938 26.023438 3.503906 C 26.128906 3.570312 26.253906 3.585938 26.375 3.550781 L 27.339844 3.269531 L 27.085938 3.648438 C 27.011719 3.757812 26.992188 3.898438 27.035156 4.023438 C 27.074219 4.148438 27.171875 4.25 27.292969 4.296875 C 29.496094 5.128906 31.21875 6.328125 32.679688 7.6875 C 32.917969 7.507812 33.167969 7.34375 33.429688 7.195312 C 31.980469 5.8125 30.28125 4.578125 28.109375 3.683594 "/>
<path style=" stroke:none;fill-rule:nonzero;fill:rgb(38.555908%,38.964844%,39.804077%);fill-opacity:1;" d="M 41.972656 2.800781 C 43.964844 1.304688 46.390625 0.871094 48.539062 0.871094 C 49.464844 0.871094 50.339844 0.949219 51.109375 1.0625 C 50.152344 1.574219 49.210938 2.109375 48.304688 2.660156 L 46.371094 2.09375 C 46.195312 2.042969 46.007812 2.105469 45.898438 2.253906 C 45.789062 2.402344 45.785156 2.601562 45.886719 2.753906 L 46.507812 3.683594 C 44.386719 4.558594 42.710938 5.761719 41.28125 7.105469 C 41.546875 7.25 41.800781 7.410156 42.046875 7.585938 C 43.484375 6.265625 45.175781 5.109375 47.324219 4.296875 C 47.449219 4.25 47.546875 4.148438 47.585938 4.023438 C 47.628906 3.894531 47.609375 3.757812 47.535156 3.648438 L 47.28125 3.265625 L 48.246094 3.550781 C 48.363281 3.585938 48.492188 3.566406 48.597656 3.503906 C 49.890625 2.710938 51.25 1.953125 52.644531 1.25 C 52.808594 1.164062 52.902344 0.988281 52.878906 0.804688 C 52.855469 0.621094 52.71875 0.472656 52.535156 0.433594 C 49.957031 -0.113281 45.085938 -0.625 41.449219 2.101562 C 40.101562 3.113281 39.070312 4.480469 38.34375 6.175781 C 38.648438 6.207031 38.941406 6.261719 39.230469 6.328125 C 39.894531 4.863281 40.800781 3.679688 41.972656 2.800781 "/>
<path style=" stroke:none;fill-rule:nonzero;fill:rgb(38.555908%,38.964844%,39.804077%);fill-opacity:1;" d="M 39.683594 13.871094 C 39.503906 14.089844 39.246094 14.222656 38.964844 14.242188 C 38.964844 14.242188 38.964844 14.242188 38.960938 14.242188 L 38.957031 14.242188 C 38.953125 14.242188 38.949219 14.242188 38.945312 14.242188 C 38.90625 14.246094 38.871094 14.246094 38.808594 14.238281 C 38.796875 14.238281 38.785156 14.234375 38.769531 14.234375 C 38.558594 13.976562 38.285156 13.777344 37.976562 13.664062 C 37.910156 13.527344 37.878906 13.378906 37.878906 13.226562 C 37.878906 12.867188 38.0625 12.542969 38.367188 12.355469 C 38.582031 12.226562 38.84375 12.179688 39.09375 12.230469 C 39.363281 12.28125 39.601562 12.445312 39.75 12.679688 C 39.859375 12.839844 39.914062 13.03125 39.914062 13.226562 C 39.914062 13.464844 39.832031 13.6875 39.683594 13.871094 M 37.308594 16.445312 C 36.75 16.445312 36.292969 15.988281 36.292969 15.429688 C 36.292969 15.230469 36.351562 15.035156 36.457031 14.871094 C 36.597656 14.660156 36.808594 14.507812 37.054688 14.445312 C 37.132812 14.421875 37.21875 14.410156 37.308594 14.410156 C 37.398438 14.410156 37.484375 14.421875 37.570312 14.445312 C 37.8125 14.507812 38.019531 14.660156 38.160156 14.871094 C 38.269531 15.035156 38.328125 15.230469 38.328125 15.429688 C 38.328125 15.988281 37.871094 16.445312 37.308594 16.445312 M 35.847656 14.234375 C 35.832031 14.238281 35.816406 14.238281 35.796875 14.242188 C 35.753906 14.246094 35.714844 14.246094 35.671875 14.242188 C 35.671875 14.242188 35.664062 14.242188 35.664062 14.242188 C 35.660156 14.242188 35.660156 14.242188 35.660156 14.242188 C 35.65625 14.242188 35.65625 14.242188 35.652344 14.242188 C 35.375 14.222656 35.113281 14.089844 34.9375 13.871094 C 34.785156 13.6875 34.707031 13.464844 34.707031 13.226562 C 34.707031 13.019531 34.769531 12.828125 34.875 12.664062 C 34.878906 12.664062 34.878906 12.664062 34.878906 12.660156 C 35.0625 12.390625 35.371094 12.210938 35.722656 12.210938 C 35.910156 12.210938 36.09375 12.261719 36.25 12.355469 C 36.558594 12.542969 36.742188 12.867188 36.742188 13.226562 C 36.742188 13.378906 36.707031 13.527344 36.644531 13.664062 C 36.332031 13.777344 36.058594 13.976562 35.847656 14.234375 M 37.308594 11.820312 C 37.355469 11.882812 37.414062 11.933594 37.480469 11.976562 C 37.417969 12.046875 37.363281 12.125 37.308594 12.203125 C 37.257812 12.125 37.199219 12.046875 37.136719 11.976562 C 37.203125 11.933594 37.261719 11.882812 37.308594 11.820312 M 40.289062 11.957031 C 40.175781 11.832031 40.046875 11.722656 39.90625 11.632812 C 40.894531 10.554688 42.042969 9.542969 43.34375 8.75 C 43.144531 8.519531 42.921875 8.304688 42.691406 8.101562 C 41.414062 8.917969 40.183594 10 39 11.34375 C 38.902344 11.339844 38.804688 11.339844 38.707031 11.351562 C 39.695312 10.050781 40.773438 8.753906 42.046875 7.585938 C 41.800781 7.414062 41.546875 7.25 41.28125 7.105469 C 40.078125 8.238281 39.046875 9.46875 38.097656 10.710938 C 38.28125 9.039062 38.664062 7.582031 39.230469 6.328125 C 38.941406 6.261719 38.644531 6.207031 38.34375 6.175781 C 37.859375 7.304688 37.511719 8.578125 37.308594 10.003906 C 37.109375 8.59375 36.765625 7.332031 36.289062 6.207031 C 35.992188 6.25 35.699219 6.308594 35.410156 6.382812 C 35.964844 7.625 36.34375 9.0625 36.523438 10.710938 C 35.597656 9.5 34.59375 8.300781 33.429688 7.195312 C 33.167969 7.347656 32.917969 7.507812 32.679688 7.6875 C 33.90625 8.832031 34.949219 10.085938 35.914062 11.351562 C 35.851562 11.34375 35.789062 11.335938 35.722656 11.335938 C 35.707031 11.335938 35.691406 11.339844 35.671875 11.339844 C 34.523438 10.035156 33.328125 8.980469 32.089844 8.175781 C 31.863281 8.382812 31.652344 8.597656 31.453125 8.824219 C 32.695312 9.601562 33.792969 10.574219 34.746094 11.613281 C 34.597656 11.707031 34.460938 11.816406 34.339844 11.945312 C 32.953125 11.632812 31.535156 11.394531 30.097656 11.191406 C 30.003906 11.46875 29.925781 11.75 29.867188 12.039062 C 31.230469 12.230469 32.578125 12.449219 33.902344 12.738281 C 33.859375 12.894531 33.835938 13.058594 33.835938 13.226562 C 33.835938 13.3125 33.84375 13.398438 33.855469 13.480469 C 32.394531 13.105469 31.027344 12.972656 29.738281 13.050781 C 29.730469 13.191406 29.71875 13.328125 29.71875 13.472656 C 29.71875 13.628906 29.730469 13.78125 29.742188 13.9375 C 31.335938 13.824219 32.921875 14.089844 34.359375 14.527344 C 34.414062 14.589844 34.476562 14.648438 34.539062 14.699219 C 33.117188 15.148438 31.703125 15.6875 30.304688 16.285156 C 30.421875 16.550781 30.554688 16.8125 30.703125 17.0625 C 32.261719 16.398438 33.835938 15.816406 35.425781 15.339844 C 35.421875 15.367188 35.421875 15.398438 35.421875 15.429688 C 35.421875 16.328125 36.054688 17.085938 36.902344 17.273438 L 36.902344 20.800781 C 37.078125 20.8125 37.253906 20.828125 37.433594 20.828125 C 37.546875 20.828125 37.660156 20.816406 37.773438 20.808594 L 37.773438 17.257812 C 38.589844 17.050781 39.199219 16.308594 39.199219 15.429688 C 39.199219 15.398438 39.195312 15.367188 39.195312 15.339844 C 40.851562 15.835938 42.492188 16.445312 44.113281 17.144531 C 44.265625 16.894531 44.40625 16.636719 44.527344 16.371094 C 43.058594 15.734375 41.574219 15.171875 40.078125 14.699219 C 40.144531 14.648438 40.203125 14.589844 40.261719 14.527344 C 41.773438 14.066406 43.445312 13.800781 45.125 13.960938 C 45.136719 13.800781 45.152344 13.636719 45.152344 13.472656 C 45.152344 13.332031 45.136719 13.195312 45.128906 13.054688 C 43.773438 12.941406 42.316406 13.078125 40.765625 13.480469 C 40.777344 13.398438 40.785156 13.3125 40.785156 13.226562 C 40.785156 13.0625 40.761719 12.90625 40.71875 12.75 C 42.121094 12.445312 43.550781 12.210938 44.996094 12.015625 C 44.9375 11.726562 44.855469 11.445312 44.757812 11.167969 C 43.246094 11.375 41.75 11.625 40.289062 11.957031 "/>
<path style=" stroke:none;fill-rule:nonzero;fill:rgb(38.555908%,38.964844%,39.804077%);fill-opacity:1;" d="M 37.480469 11.976562 C 37.414062 11.933594 37.359375 11.882812 37.308594 11.820312 C 37.261719 11.882812 37.203125 11.933594 37.136719 11.976562 C 37.199219 12.046875 37.257812 12.125 37.308594 12.203125 C 37.359375 12.125 37.417969 12.046875 37.480469 11.976562 "/>
<path style=" stroke:none;fill-rule:nonzero;fill:rgb(88.35907%,82.772827%,80.67627%);fill-opacity:1;" d="M 65.5 84.117188 C 65.421875 84.097656 65.34375 84.085938 65.265625 84.085938 C 65.183594 84.085938 65.105469 84.097656 65.035156 84.117188 C 64.8125 84.175781 64.621094 84.3125 64.496094 84.503906 C 64.398438 84.652344 64.34375 84.828125 64.34375 85.007812 C 64.34375 85.515625 64.757812 85.925781 65.265625 85.925781 C 65.773438 85.925781 66.183594 85.515625 66.183594 85.007812 C 66.183594 84.828125 66.132812 84.652344 66.035156 84.503906 C 65.90625 84.3125 65.71875 84.175781 65.5 84.117188 "/>
<g clip-path="url(#clip1)" clip-rule="nonzero">
<path style=" stroke:none;fill-rule:nonzero;fill:rgb(38.555908%,38.964844%,39.804077%);fill-opacity:1;" d="M 0.0351562 127.582031 L 0.3125 126.746094 L 0.480469 126.746094 C 0.785156 127.164062 1.339844 127.636719 2.0625 127.636719 C 2.894531 127.636719 3.199219 126.96875 3.199219 126.109375 L 3.199219 108.839844 L 5.089844 108.839844 L 5.089844 125.21875 C 5.089844 127.082031 4.226562 128.609375 2.3125 128.609375 C 1.339844 128.609375 0.507812 128.191406 0.0351562 127.582031 "/>
</g>
<g clip-path="url(#clip2)" clip-rule="nonzero">
<path style=" stroke:none;fill-rule:nonzero;fill:rgb(38.555908%,38.964844%,39.804077%);fill-opacity:1;" d="M 11.195312 108.839844 L 17.914062 108.839844 L 18.191406 109.867188 L 13.082031 109.867188 L 13.082031 117.613281 L 16.832031 117.613281 L 16.832031 118.640625 L 13.082031 118.640625 L 13.082031 127.246094 L 18.582031 127.246094 L 18.304688 128.273438 L 11.195312 128.273438 Z M 11.195312 108.839844 "/>
</g>
<g clip-path="url(#clip3)" clip-rule="nonzero">
<path style=" stroke:none;fill-rule:nonzero;fill:rgb(38.555908%,38.964844%,39.804077%);fill-opacity:1;" d="M 22.46875 126.441406 L 23.1875 125.386719 L 23.382812 125.386719 C 24.078125 126.914062 24.964844 127.582031 26.132812 127.582031 C 27.578125 127.582031 28.6875 126.777344 28.6875 124.636719 C 28.6875 119.5 22.882812 117.835938 22.882812 112.808594 C 22.882812 110.117188 24.355469 108.507812 26.632812 108.507812 C 27.796875 108.507812 29.1875 108.921875 29.90625 110.449219 L 29.1875 111.476562 L 28.992188 111.476562 C 28.464844 109.949219 27.492188 109.535156 26.632812 109.535156 C 25.4375 109.535156 24.355469 110.199219 24.355469 111.863281 C 24.355469 116.085938 30.269531 118.058594 30.269531 123.554688 C 30.269531 126.609375 28.605469 128.609375 26.132812 128.609375 C 24.355469 128.609375 23.246094 127.859375 22.46875 126.441406 "/>
</g>
<g clip-path="url(#clip4)" clip-rule="nonzero">
<path style=" stroke:none;fill-rule:nonzero;fill:rgb(38.555908%,38.964844%,39.804077%);fill-opacity:1;" d="M 34.15625 126.441406 L 34.878906 125.386719 L 35.074219 125.386719 C 35.765625 126.914062 36.65625 127.582031 37.820312 127.582031 C 39.265625 127.582031 40.375 126.777344 40.375 124.636719 C 40.375 119.5 34.570312 117.835938 34.570312 112.808594 C 34.570312 110.117188 36.042969 108.507812 38.320312 108.507812 C 39.488281 108.507812 40.875 108.921875 41.597656 110.449219 L 40.875 111.476562 L 40.679688 111.476562 C 40.152344 109.949219 39.179688 109.535156 38.320312 109.535156 C 37.128906 109.535156 36.042969 110.199219 36.042969 111.863281 C 36.042969 116.085938 41.957031 118.058594 41.957031 123.554688 C 41.957031 126.609375 40.292969 128.609375 37.820312 128.609375 C 36.042969 128.609375 34.933594 127.859375 34.15625 126.441406 "/>
</g>
<g clip-path="url(#clip5)" clip-rule="nonzero">
<path style=" stroke:none;fill-rule:nonzero;fill:rgb(38.555908%,38.964844%,39.804077%);fill-opacity:1;" d="M 47.234375 108.839844 L 53.953125 108.839844 L 54.230469 109.867188 L 49.121094 109.867188 L 49.121094 117.613281 L 52.871094 117.613281 L 52.871094 118.640625 L 49.121094 118.640625 L 49.121094 127.246094 L 54.617188 127.246094 L 54.339844 128.273438 L 47.234375 128.273438 Z M 47.234375 108.839844 "/>
</g>
<g clip-path="url(#clip6)" clip-rule="nonzero">
<path style=" stroke:none;fill-rule:nonzero;fill:rgb(38.555908%,38.964844%,39.804077%);fill-opacity:1;" d="M 71.691406 121.890625 C 71.691406 119.640625 71.164062 118.640625 69.054688 118.640625 L 67.582031 118.640625 L 67.582031 127.246094 L 69.054688 127.246094 C 71.164062 127.246094 71.691406 126.441406 71.691406 124.195312 Z M 67.582031 117.613281 L 68.609375 117.613281 C 70.859375 117.613281 71.304688 116.863281 71.304688 114.917969 L 71.304688 112.644531 C 71.304688 110.699219 70.859375 109.867188 68.609375 109.867188 L 67.582031 109.867188 Z M 73.773438 123.164062 C 73.773438 127.21875 72.109375 128.273438 69.054688 128.273438 L 65.695312 128.273438 L 65.695312 108.839844 L 68.609375 108.839844 C 71.664062 108.839844 73.300781 109.894531 73.300781 113.753906 C 73.300781 116.445312 72.46875 117.613281 70.941406 118.058594 C 72.746094 118.640625 73.773438 120.113281 73.773438 123.164062 "/>
</g>
<g clip-path="url(#clip7)" clip-rule="nonzero">
<path style=" stroke:none;fill-rule:nonzero;fill:rgb(38.555908%,38.964844%,39.804077%);fill-opacity:1;" d="M 79.1875 108.839844 L 85.90625 108.839844 L 86.183594 109.867188 L 81.074219 109.867188 L 81.074219 117.613281 L 84.824219 117.613281 L 84.824219 118.640625 L 81.074219 118.640625 L 81.074219 127.246094 L 86.574219 127.246094 L 86.296875 128.273438 L 79.1875 128.273438 Z M 79.1875 108.839844 "/>
</g>
<g clip-path="url(#clip8)" clip-rule="nonzero">
<path style=" stroke:none;fill-rule:nonzero;fill:rgb(38.555908%,38.964844%,39.804077%);fill-opacity:1;" d="M 95.066406 118.472656 C 97.316406 118.472656 97.84375 117.503906 97.84375 115.253906 L 97.84375 112.949219 C 97.84375 110.671875 97.316406 109.867188 95.207031 109.867188 L 93.734375 109.867188 L 93.734375 118.472656 Z M 98.316406 128.273438 L 95.539062 119.5 L 93.734375 119.5 L 93.734375 128.273438 L 91.847656 128.273438 L 91.847656 108.839844 L 95.207031 108.839844 C 98.261719 108.839844 99.925781 109.921875 99.925781 114.003906 C 99.925781 117.195312 99.203125 118.640625 97.484375 119.195312 L 100.511719 128.273438 Z M 98.316406 128.273438 "/>
</g>
<g clip-path="url(#clip9)" clip-rule="nonzero">
<path style=" stroke:none;fill-rule:nonzero;fill:rgb(38.555908%,38.964844%,39.804077%);fill-opacity:1;" d="M 113.140625 108.839844 L 113.140625 128.273438 L 112.171875 128.273438 L 106.8125 111.808594 L 106.8125 128.273438 L 105.757812 128.273438 L 105.757812 108.839844 L 107.8125 108.839844 L 112.089844 121.945312 L 112.089844 108.839844 Z M 113.140625 108.839844 "/>
</g>
<g clip-path="url(#clip10)" clip-rule="nonzero">
<path style=" stroke:none;fill-rule:nonzero;fill:rgb(38.555908%,38.964844%,39.804077%);fill-opacity:1;" d="M 117.863281 126.441406 L 118.582031 125.386719 L 118.777344 125.386719 C 119.472656 126.914062 120.359375 127.582031 121.527344 127.582031 C 122.972656 127.582031 124.082031 126.777344 124.082031 124.636719 C 124.082031 119.5 118.277344 117.835938 118.277344 112.808594 C 118.277344 110.117188 119.75 108.507812 122.027344 108.507812 C 123.191406 108.507812 124.582031 108.921875 125.300781 110.449219 L 124.582031 111.476562 L 124.386719 111.476562 C 123.859375 109.949219 122.886719 109.535156 122.027344 109.535156 C 120.832031 109.535156 119.75 110.199219 119.75 111.863281 C 119.75 116.085938 125.664062 118.058594 125.664062 123.554688 C 125.664062 126.609375 124 128.609375 121.527344 128.609375 C 119.75 128.609375 118.640625 127.859375 117.863281 126.441406 "/>
</g>
<g clip-path="url(#clip11)" clip-rule="nonzero">
<path style=" stroke:none;fill-rule:nonzero;fill:rgb(38.555908%,38.964844%,39.804077%);fill-opacity:1;" d="M 134.214844 109.867188 L 134.214844 128.273438 L 132.328125 128.273438 L 132.328125 109.867188 L 128.855469 109.867188 L 129.132812 108.839844 L 137.4375 108.839844 L 137.683594 109.867188 Z M 134.214844 109.867188 "/>
</g>
<g clip-path="url(#clip12)" clip-rule="nonzero">
<path style=" stroke:none;fill-rule:nonzero;fill:rgb(38.555908%,38.964844%,39.804077%);fill-opacity:1;" d="M 142.542969 108.839844 L 149.261719 108.839844 L 149.542969 109.867188 L 144.433594 109.867188 L 144.433594 117.613281 L 148.179688 117.613281 L 148.179688 118.640625 L 144.433594 118.640625 L 144.433594 127.246094 L 149.929688 127.246094 L 149.652344 128.273438 L 142.542969 128.273438 Z M 142.542969 108.839844 "/>
</g>
<g clip-path="url(#clip13)" clip-rule="nonzero">
<path style=" stroke:none;fill-rule:nonzero;fill:rgb(38.555908%,38.964844%,39.804077%);fill-opacity:1;" d="M 155.203125 108.839844 L 157.09375 108.839844 L 157.09375 128.273438 L 155.203125 128.273438 Z M 155.203125 108.839844 "/>
</g>
<g clip-path="url(#clip14)" clip-rule="nonzero">
<path style=" stroke:none;fill-rule:nonzero;fill:rgb(38.555908%,38.964844%,39.804077%);fill-opacity:1;" d="M 170.585938 108.839844 L 170.585938 128.273438 L 169.613281 128.273438 L 164.253906 111.808594 L 164.253906 128.273438 L 163.199219 128.273438 L 163.199219 108.839844 L 165.253906 108.839844 L 169.53125 121.945312 L 169.53125 108.839844 Z M 170.585938 108.839844 "/>
</g>
<path style=" stroke:none;fill-rule:nonzero;fill:rgb(88.35907%,82.772827%,80.67627%);fill-opacity:1;" d="M 60.722656 118.238281 C 60.648438 118.214844 60.570312 118.207031 60.488281 118.207031 C 60.40625 118.207031 60.332031 118.214844 60.257812 118.234375 C 60.035156 118.292969 59.84375 118.429688 59.71875 118.621094 C 59.621094 118.769531 59.570312 118.945312 59.570312 119.125 C 59.570312 119.632812 59.980469 120.046875 60.488281 120.046875 C 60.996094 120.046875 61.410156 119.632812 61.410156 119.125 C 61.410156 118.945312 61.355469 118.769531 61.257812 118.621094 C 61.132812 118.429688 60.941406 118.292969 60.722656 118.238281 "/>
</g>
</svg>
